# xmcd
#
# Track frame offsets:
#	150
#	20173
#	34927
#	52954
#	67933
#	88937
#	101194
#	115889
#	135888
#	151459
#	172172
#	185362
#
# Disc length: 2663 seconds
#
# Revision: 0
# Processed by: cddbd v1.5PL3 Copyright (c) Steve Scherf et al.
# Submitted via: dBpowerAMP V4.0
#
DISCID=a20a650c
DTITLE=The Alley Gators - Not Invited
DYEAR=1900
DGENRE=Blues
TTITLE0=Took Your Lover
TTITLE1=Not Invited
TTITLE2=Late From Work
TTITLE3=Don't Hide
TTITLE4=Jivin'
TTITLE5=Inspite Of Me
TTITLE6=Take A Ride
TTITLE7=Come On
TTITLE8=Insane
TTITLE9=About Last Night
TTITLE10=Hit My Face
TTITLE11=Two Time Boogie
EXTD=
EXTT0=
EXTT1=
EXTT2=
EXTT3=
EXTT4=
EXTT5=
EXTT6=
EXTT7=
EXTT8=
EXTT9=
EXTT10=
EXTT11=
PLAYORDER=
